#VRML V2.0 utf8
# 3D model generated by easyeda2kicad.py (https://github.com/uPesy/easyeda2kicad.py)

Shape{
    appearance Appearance {
        material  Material 	{
            diffuseColor 0.14901960784313725 0.14901960784313725 0.14901960784313725
            specularColor 0.07450980392156863 0.07450980392156863 0.07450980392156863
            ambientIntensity 0.2
            transparency 0
            shininess 0.5
        }
    }
    geometry IndexedFaceSet {
        ccw TRUE
        solid FALSE
        coord DEF co Coordinate {
            point [
                -1.002 -0.2095 0.0, -0.9856 -0.2396 0.0, -0.9961 -0.2564 0.0, -1.002 -0.4921 0.0, -1.0 -0.4719 0.0, -0.8425 -0.4719 0.0, -0.8576 -0.2732 0.0, -0.8549 -0.2888 0.0, -0.987 -0.3067 0.0, -0.8425 -0.4578 0.0, -0.6969 -0.2095 0.0, -0.6969 -0.4921 0.0, -0.9616 -0.238 0.0, -0.971 -0.2256 0.0, -0.8714 -0.2256 0.0, -0.8454 -0.2583 0.0, -0.8556 -0.2409 0.0, -1.0012 -0.3187 0.0, -0.994 -0.3376 0.0, -1.0 -0.3972 0.0, -0.8686 -0.2278 0.0, -1.002 -0.3118 0.0, -0.8546 -0.2952 0.0, -0.8569 -0.3138 0.0, -0.8632 -0.3299 0.0, -0.8809 -0.238 0.0, -0.8684 -0.251 0.0, -0.9704 -0.2467 0.0, -0.8604 -0.2651 0.0, -0.98 -0.2606 0.0, -0.9857 -0.2758 0.0, -0.8733 -0.3444 0.0, -0.8847 -0.3542 0.0, -0.8987 -0.3612 0.0, -0.9388 -0.3628 0.0, -0.9519 -0.3579 0.0, -0.9214 -0.3649 0.0, -0.9641 -0.3495 0.0, -0.9747 -0.3379 0.0, -0.9879 -0.2942 0.0, -0.9138 -0.3645 0.0, -0.9829 -0.3227 0.0, -0.9838 -0.3972 0.0, -0.9411 -0.3768 0.0, -0.9838 -0.4578 0.0, -0.9203 -0.3791 0.0, -0.8988 -0.3765 0.0, -0.8821 -0.37 0.0, -0.9831 -0.3528 0.0, -0.9765 -0.3591 0.0, -0.9593 -0.3705 0.0, -0.8392 -0.3069 0.0, -0.8385 -0.2943 0.0, -0.8412 -0.2709 0.0, -0.8666 -0.3592 0.0, -0.8523 -0.3428 0.0, -0.8438 -0.3261 0.0, -1.004 -0.2918 0.0, -1.3031 -0.2095 0.0, -1.002 -0.2758 0.0, -1.0015 -0.2719 0.0, -1.3031 -0.4921 0.0, -1.004 -0.2941 0.0, -1.0 -0.0762 0.0, -0.8425 -0.1045 0.0, -0.8587 -0.1045 0.0, -0.9233 -0.1045 0.0, -0.9233 -0.1792 0.0, -0.9838 -0.1792 0.0, -0.8587 -0.1792 0.0, -0.9071 -0.1792 0.0, -0.9071 -0.1045 0.0, -0.9838 -0.1045 0.0, -0.8435 -0.0192 0.0, -0.8425 -0.0444 0.0, -0.8425 -0.0762 0.0, -0.9619 0.0446 0.0, -0.9781 0.0338 0.0, -1.0 0.0732 0.0, -0.9881 0.0226 0.0, -0.9948 0.0094 0.0, -0.8425 0.1479 0.0, -0.8482 0.0056 0.0, -0.8562 0.0215 0.0, -0.6969 0.4921 0.0, -0.8425 0.1499 0.0, -1.002 0.4921 0.0, -1.0 0.2226 0.0, -1.0 0.2072 0.0, -0.8425 -0.1933 0.0, -1.0 -0.1933 0.0, -1.0 -0.1045 0.0, -1.0 0.0886 0.0, -1.0 -0.0274 0.0, -0.9991 -0.0105 0.0, -0.8664 0.0332 0.0, -0.8808 0.0432 0.0, -0.8974 0.0498 0.0, -0.9166 0.0528 0.0, -0.9232 0.053 0.0, -0.9443 0.0508 0.0, -1.3031 0.4921 0.0, -0.9495 0.1126 0.0, -0.9495 0.1839 0.0, 0.126 -0.4921 0.3583, -0.126 -0.4921 0.3583, -0.4524 -0.4921 0.1791, 1.126 -0.4921 0.3583, 0.874 -0.4921 0.3583, 0.5476 -0.4921 0.1791, -0.5476 -0.4921 0.1791, 0.5 -0.4921 1.4843, 0.874 -0.4921 1.4843, 0.874 -0.4921 1.6102, 1.5 -0.4921 1.4843, 1.5 -0.4921 1.7323, 1.3031 -0.4921 1.9685, 0.874 -0.4921 1.3583, 0.5 -0.4921 0.9843, 1.126 -0.4921 1.3583, 1.5 -0.4921 0.9843, 1.126 -0.4921 1.4843, 1.126 -0.4921 1.6102, -0.5 -0.4921 1.4843, -0.126 -0.4921 1.4843, -0.126 -0.4921 1.6102, 0.6969 -0.4921 1.9685, 0.5 -0.4921 1.7323, 0.3031 -0.4921 1.9685, -0.126 -0.4921 1.3583, -0.5 -0.4921 0.9843, 0.126 -0.4921 1.3583, 0.126 -0.4921 1.4843, 0.126 -0.4921 1.6102, -0.3031 -0.4921 1.9685, -0.5 -0.4921 1.7323, -0.6969 -0.4921 1.9685, -0.874 -0.4921 1.6102, -1.3031 -0.4921 1.9685, -1.126 -0.4921 1.6102, -1.313 -0.4921 1.9567, -1.126 -0.4921 1.4843, -1.313 -0.4921 1.4843, -1.126 -0.4921 1.3583, -1.313 -0.4921 0.9843, -0.874 -0.4921 1.3583, -0.874 -0.4921 1.4843, -1.313 -0.4921 0.1791, -1.313 -0.4921 0.0118, -1.5 -0.4921 0.2362, -1.4524 -0.4921 0.1791, 0.5 -0.4921 0.2362, 0.874 -0.4921 0.6102, 1.126 -0.4921 0.6102, 1.5 -0.4921 0.2362, 1.4524 -0.4921 0.1791, 0.6969 -0.4921 0.0, 1.3031 -0.4921 0.0, -0.5 -0.4921 0.2362, -0.126 -0.4921 0.6102, 0.126 -0.4921 0.6102, 0.4524 -0.4921 0.1791, -0.3031 -0.4921 0.0, 0.3031 -0.4921 0.0, -0.874 -0.4921 0.3583, -0.874 -0.4921 0.6102, -1.126 -0.4921 0.6102, -1.126 -0.4921 0.3583, -1.5 -0.4921 1.7323, -1.5 -0.4921 1.4843, -1.5 -0.4921 0.9843, 0.126 0.2559 0.4843, 0.5 0.2559 0.2362, 0.126 0.2559 0.3583, 0.4344 0.2559 0.1575, -0.126 0.2559 0.3583, 1.126 0.2559 0.4843, 1.5 0.2559 0.2362, 1.126 0.2559 0.3583, 1.4344 0.2559 0.1575, 0.874 0.2559 0.3583, 0.5656 0.2559 1.811, 1.4344 0.2559 1.811, 0.5 0.2559 1.7323, 1.5 0.2559 1.7323, -0.4344 0.2559 1.811, 0.4344 0.2559 1.811, -0.5 0.2559 1.7323, 0.5 0.2559 1.7106, -0.5 0.2559 1.7106, -1.313 0.2559 1.7106, -0.5656 0.2559 1.811, -1.313 0.2559 1.811, -1.5 0.2559 1.7323, -1.4344 0.2559 1.811, -1.313 0.2559 0.4843, -1.313 0.2559 0.1575, -1.4344 0.2559 0.1575, -0.5 0.2559 0.9843, -0.5 0.2559 0.4843, -0.874 0.2559 0.4843, -0.5 0.2559 0.2362, -0.874 0.2559 0.3583, -0.5656 0.2559 0.1575, -1.126 0.2559 0.3583, -1.126 0.2559 0.4843, -1.126 0.2559 0.6102, -1.313 0.2559 0.9843, -0.874 0.2559 0.6102, -0.4344 0.2559 0.1575, -0.126 0.2559 0.4843, -0.126 0.2559 0.6102, 0.126 0.2559 0.6102, 0.5 0.2559 0.9843, 0.5 0.2559 0.4843, 0.5656 0.2559 0.1575, 0.874 0.2559 0.4843, 0.874 0.2559 0.6102, 1.126 0.2559 0.6102, 1.5 0.2559 0.9843, 1.5 0.2559 0.4843, -1.5 0.2559 0.2362, -1.5 0.2559 0.4843, -1.5 0.2559 0.9843, -1.5 0.2559 1.7106, -0.874 0.2559 1.6102, -0.874 0.2559 1.3583, -1.126 0.2559 1.3583, -1.126 0.2559 1.6102, 0.126 0.2559 1.6102, 0.126 0.2559 1.3583, -0.126 0.2559 1.3583, -0.126 0.2559 1.6102, 1.5 0.2559 1.7106, 0.874 0.2559 1.6102, 0.874 0.2559 1.3583, 1.126 0.2559 1.3583, 1.126 0.2559 1.6102, -0.4344 0.4921 0.1575, 0.4344 0.4921 0.1575, -0.3031 0.4921 0.0, 0.3031 0.4921 0.0, 0.4344 0.4921 1.811, -0.4344 0.4921 1.811, 0.3031 0.4921 1.9685, -0.3031 0.4921 1.9685, 0.5656 0.4921 0.1575, 1.4344 0.4921 0.1575, 0.6969 0.4921 0.0, 1.3031 0.4921 0.0, -0.5656 0.4921 1.811, -1.4344 0.4921 1.811, -0.6969 0.4921 1.9685, -1.3031 0.4921 1.9685, -1.4344 0.4921 0.1575, -0.5656 0.4921 0.1575, 0.6969 0.4921 1.9685, 1.3031 0.4921 1.9685, 0.5656 0.4921 1.811, 1.4344 0.4921 1.811, 1.4344 0.4921 1.811
            ]
        }
        coordIndex [
            0,1,2,-1,3,4,5,-1,6,7,8,-1,9,10,5,-1,5,10,11,-1,5,11,3,-1,12,13,14,-1,15,16,10,-1,17,18,19,-1,16,20,10,-1,10,20,14,-1,10,14,0,-1,0,14,13,-1,0,13,1,-1,4,3,19,-1,19,3,21,-1,19,21,17,-1,7,22,8,-1,8,22,23,-1,8,23,24,-1,14,25,12,-1,12,25,26,-1,12,26,27,-1,27,26,28,-1,27,28,29,-1,29,28,30,-1,24,31,8,-1,8,31,32,-1,8,32,33,-1,34,35,36,-1,36,35,37,-1,36,37,38,-1,6,8,28,-1,28,8,39,-1,28,39,30,-1,33,40,8,-1,8,40,36,-1,8,36,41,-1,41,36,38,-1,42,43,44,-1,44,43,45,-1,44,45,9,-1,9,45,46,-1,9,46,47,-1,18,48,19,-1,19,48,49,-1,19,49,42,-1,42,49,50,-1,42,50,43,-1,51,52,10,-1,10,52,53,-1,10,53,15,-1,47,54,9,-1,9,54,55,-1,9,55,10,-1,10,55,56,-1,10,56,51,-1,57,58,59,-1,59,58,0,-1,59,0,60,-1,60,0,2,-1,3,61,21,-1,21,61,58,-1,21,58,62,-1,62,58,57,-1,63,64,65,-1,66,67,68,-1,69,70,65,-1,65,70,71,-1,65,71,63,-1,63,71,66,-1,63,66,72,-1,72,66,68,-1,73,10,74,-1,74,10,75,-1,76,77,78,-1,78,77,79,-1,78,79,80,-1,81,82,83,-1,73,82,10,-1,10,82,81,-1,10,81,84,-1,84,81,85,-1,84,85,86,-1,86,85,87,-1,86,87,88,-1,63,75,64,-1,64,75,10,-1,64,10,89,-1,89,10,0,-1,89,0,90,-1,90,0,91,-1,0,92,78,-1,72,91,63,-1,63,91,0,-1,63,0,93,-1,93,0,78,-1,93,78,94,-1,94,78,80,-1,83,95,81,-1,81,95,96,-1,81,96,97,-1,97,98,81,-1,81,98,99,-1,81,99,78,-1,78,99,100,-1,78,100,76,-1,58,101,0,-1,0,101,86,-1,0,86,92,-1,92,86,88,-1,92,88,102,-1,102,88,103,-1,104,105,106,-1,107,108,109,-1,3,11,110,-1,111,112,113,-1,114,115,116,-1,112,111,117,-1,117,111,118,-1,117,118,119,-1,119,118,120,-1,119,120,121,-1,121,120,114,-1,121,114,122,-1,122,114,116,-1,122,116,113,-1,123,124,125,-1,116,126,113,-1,113,126,127,-1,113,127,111,-1,111,127,128,-1,124,123,129,-1,129,123,130,-1,129,130,131,-1,131,130,118,-1,131,118,132,-1,132,118,111,-1,132,111,133,-1,133,111,128,-1,133,128,125,-1,128,134,125,-1,125,134,135,-1,125,135,123,-1,123,135,136,-1,123,136,137,-1,137,136,138,-1,137,138,139,-1,139,138,140,-1,139,140,141,-1,141,140,142,-1,141,142,143,-1,143,142,144,-1,143,144,145,-1,145,144,130,-1,145,130,146,-1,146,130,123,-1,146,123,137,-1,147,148,61,-1,144,149,147,-1,147,149,150,-1,147,150,148,-1,109,108,151,-1,151,108,118,-1,118,108,152,-1,118,152,120,-1,120,152,153,-1,120,153,154,-1,154,153,107,-1,154,107,155,-1,107,109,155,-1,155,109,156,-1,155,156,157,-1,106,105,158,-1,158,105,130,-1,130,105,159,-1,130,159,118,-1,118,159,160,-1,118,160,151,-1,151,160,104,-1,151,104,161,-1,104,106,161,-1,161,106,162,-1,161,162,163,-1,61,3,147,-1,147,3,110,-1,147,110,164,-1,164,110,158,-1,164,158,165,-1,165,158,130,-1,165,130,166,-1,166,130,144,-1,166,144,167,-1,167,144,147,-1,167,147,164,-1,140,168,142,-1,142,168,169,-1,142,169,144,-1,144,169,170,-1,144,170,149,-1,171,172,173,-1,173,172,174,-1,173,174,175,-1,176,177,178,-1,178,177,179,-1,178,179,180,-1,181,182,183,-1,183,182,184,-1,185,186,187,-1,187,186,183,-1,184,188,183,-1,183,188,189,-1,183,189,187,-1,187,189,190,-1,187,190,191,-1,191,190,192,-1,192,190,193,-1,192,193,194,-1,195,196,197,-1,198,199,200,-1,200,199,201,-1,200,201,202,-1,202,201,203,-1,202,203,204,-1,204,203,196,-1,204,196,205,-1,205,196,195,-1,205,195,206,-1,206,195,207,-1,206,207,208,-1,208,207,198,-1,208,198,200,-1,174,209,175,-1,175,209,201,-1,175,201,210,-1,210,201,199,-1,210,199,211,-1,211,199,198,-1,211,198,212,-1,212,198,213,-1,212,213,171,-1,171,213,214,-1,171,214,172,-1,179,215,180,-1,180,215,172,-1,180,172,216,-1,216,172,214,-1,216,214,217,-1,217,214,213,-1,217,213,218,-1,218,213,219,-1,218,219,176,-1,176,219,220,-1,176,220,177,-1,197,221,195,-1,195,221,222,-1,195,222,207,-1,207,222,223,-1,207,223,190,-1,190,223,224,-1,190,224,193,-1,225,189,226,-1,226,189,198,-1,226,198,227,-1,227,198,207,-1,227,207,228,-1,228,207,190,-1,228,190,225,-1,225,190,189,-1,229,188,230,-1,230,188,213,-1,230,213,231,-1,231,213,198,-1,231,198,232,-1,232,198,189,-1,232,189,229,-1,229,189,188,-1,184,233,188,-1,188,233,234,-1,188,234,213,-1,213,234,235,-1,213,235,219,-1,219,235,236,-1,219,236,233,-1,233,236,237,-1,233,237,234,-1,238,239,240,-1,240,239,241,-1,240,241,162,-1,162,241,163,-1,209,174,238,-1,238,174,239,-1,242,243,244,-1,244,243,245,-1,245,134,244,-1,244,134,128,-1,186,185,242,-1,242,185,243,-1,246,247,248,-1,248,247,249,-1,250,251,252,-1,252,251,253,-1,253,138,252,-1,252,138,136,-1,248,249,156,-1,156,249,157,-1,215,179,246,-1,246,179,247,-1,191,194,250,-1,250,194,251,-1,254,255,101,-1,101,255,84,-1,184,115,233,-1,233,115,114,-1,233,114,219,-1,219,114,120,-1,219,120,220,-1,220,120,154,-1,220,154,177,-1,256,257,258,-1,258,257,259,-1,149,168,221,-1,221,168,193,-1,116,257,126,-1,126,257,256,-1,197,203,254,-1,254,203,255,-1,258,259,181,-1,181,259,182,-1,253,251,194,-1,193,168,194,-1,194,168,138,-1,194,138,253,-1,250,252,191,-1,191,252,136,-1,191,136,187,-1,187,136,135,-1,84,255,10,-1,10,255,203,-1,11,10,110,-1,110,10,203,-1,110,203,158,-1,158,203,201,-1,254,101,197,-1,197,101,61,-1,197,61,221,-1,221,61,149,-1,
        ]
    }
}
Shape{
    appearance Appearance {
        material  Material 	{
            diffuseColor 0.7529411764705882 0.7529411764705882 0.7529411764705882
            specularColor 0.3764705882352941 0.3764705882352941 0.3764705882352941
            ambientIntensity 0.2
            transparency 0
            shininess 0.5
        }
    }
    geometry IndexedFaceSet {
        ccw TRUE
        solid FALSE
        coord DEF co Coordinate {
            point [
                -1.126 1.1457 0.6102, -0.874 1.1457 0.6102, -0.874 1.1758 0.6042, -1.126 1.1758 0.6042, -0.874 1.2013 0.5872, -1.126 1.2013 0.5872, -0.874 1.2184 0.5616, -1.126 1.2184 0.5616, -0.874 1.2244 0.5315, -1.126 1.2244 0.5315, -1.126 1.2244 -1.1024, -0.874 1.2244 -1.1024, -1.126 1.1457 -1.1811, -0.874 1.1457 -1.1811, -1.126 1.0512 -1.1811, -0.874 1.0512 -1.1811, -1.126 0.9724 -1.1024, -0.874 0.9724 -1.1024, -1.126 0.9724 0.2795, -0.874 0.9724 0.2795, -1.126 0.9664 0.3097, -0.874 0.9664 0.3097, -1.126 0.9494 0.3352, -0.874 0.9494 0.3352, -1.126 0.9238 0.3523, -0.874 0.9238 0.3523, -1.126 0.8937 0.3583, -0.874 0.8937 0.3583, -0.874 0.2559 0.6102, -0.874 0.2559 0.3583, -1.126 0.2559 0.3583, -1.126 0.2559 0.6102, -0.874 -0.4921 0.3583, -0.874 -2.7756 0.3583, -1.126 -0.4921 0.3583, -1.126 -2.7756 0.3583, -1.126 -0.4921 0.6102, -1.126 -2.7756 0.6102, -0.874 -0.4921 0.6102, -0.874 -2.7756 0.6102, -1.126 -2.8543 0.437, -1.126 -2.8543 0.5315, -0.874 -2.8543 0.5315, -0.874 -2.8543 0.437, -1.126 2.1457 1.6102, -0.874 2.1457 1.6102, -0.874 2.1758 1.6042, -1.126 2.1758 1.6042, -0.874 2.2013 1.5872, -1.126 2.2013 1.5872, -0.874 2.2184 1.5616, -1.126 2.2184 1.5616, -0.874 2.2244 1.5315, -1.126 2.2244 1.5315, -1.126 2.2244 -1.1024, -0.874 2.2244 -1.1024, -1.126 2.1457 -1.1811, -0.874 2.1457 -1.1811, -1.126 2.0512 -1.1811, -0.874 2.0512 -1.1811, -1.126 1.9724 -1.1024, -0.874 1.9724 -1.1024, -1.126 1.9724 1.2795, -0.874 1.9724 1.2795, -1.126 1.9664 1.3097, -0.874 1.9664 1.3097, -1.126 1.9494 1.3352, -0.874 1.9494 1.3352, -1.126 1.9238 1.3523, -0.874 1.9238 1.3523, -1.126 1.8937 1.3583, -0.874 1.8937 1.3583, -0.874 0.2559 1.6102, -0.874 0.2559 1.3583, -1.126 0.2559 1.3583, -1.126 0.2559 1.6102, -0.874 -0.4921 1.3583, -0.874 -2.7756 1.3583, -1.126 -0.4921 1.3583, -1.126 -2.7756 1.3583, -1.126 -0.4921 1.6102, -1.126 -2.7756 1.6102, -0.874 -0.4921 1.6102, -0.874 -2.7756 1.6102, -1.126 -2.8543 1.437, -1.126 -2.8543 1.5315, -0.874 -2.8543 1.5315, -0.874 -2.8543 1.437, -0.874 -2.8543 1.437
            ]
        }
        coordIndex [
            0,1,2,-1,0,2,3,-1,3,2,4,-1,3,4,5,-1,5,4,6,-1,5,6,7,-1,7,6,8,-1,7,8,9,-1,10,9,11,-1,11,9,8,-1,12,10,13,-1,13,10,11,-1,14,12,15,-1,15,12,13,-1,16,14,17,-1,17,14,15,-1,18,16,19,-1,19,16,17,-1,18,19,20,-1,20,19,21,-1,20,21,22,-1,22,21,23,-1,22,23,24,-1,24,23,25,-1,24,25,26,-1,26,25,27,-1,1,28,29,-1,29,27,1,-1,1,27,25,-1,1,25,2,-1,2,25,23,-1,15,13,17,-1,17,13,11,-1,17,11,19,-1,19,11,8,-1,19,8,21,-1,21,8,6,-1,21,6,23,-1,23,6,4,-1,23,4,2,-1,22,7,20,-1,20,7,9,-1,20,9,18,-1,30,31,26,-1,26,31,0,-1,26,0,24,-1,24,0,3,-1,24,3,22,-1,22,3,5,-1,22,5,7,-1,14,16,12,-1,12,16,18,-1,12,18,10,-1,10,18,9,-1,28,1,31,-1,31,1,0,-1,30,26,29,-1,29,26,27,-1,32,33,34,-1,34,33,35,-1,36,37,38,-1,38,37,39,-1,40,41,35,-1,35,41,37,-1,35,37,34,-1,34,37,36,-1,42,43,39,-1,39,43,33,-1,39,33,38,-1,38,33,32,-1,40,35,43,-1,43,35,33,-1,41,40,42,-1,42,40,43,-1,37,41,39,-1,39,41,42,-1,44,45,46,-1,44,46,47,-1,47,46,48,-1,47,48,49,-1,49,48,50,-1,49,50,51,-1,51,50,52,-1,51,52,53,-1,54,53,55,-1,55,53,52,-1,56,54,57,-1,57,54,55,-1,58,56,59,-1,59,56,57,-1,60,58,61,-1,61,58,59,-1,62,60,63,-1,63,60,61,-1,62,63,64,-1,64,63,65,-1,64,65,66,-1,66,65,67,-1,66,67,68,-1,68,67,69,-1,68,69,70,-1,70,69,71,-1,45,72,73,-1,59,57,61,-1,61,57,55,-1,61,55,63,-1,63,55,52,-1,63,52,65,-1,65,52,50,-1,65,50,67,-1,73,71,45,-1,45,71,69,-1,45,69,46,-1,46,69,67,-1,46,67,48,-1,48,67,50,-1,56,58,54,-1,54,58,60,-1,54,60,53,-1,74,75,70,-1,70,75,44,-1,70,44,68,-1,68,44,47,-1,68,47,66,-1,60,62,53,-1,53,62,64,-1,53,64,51,-1,51,64,66,-1,51,66,49,-1,49,66,47,-1,72,45,75,-1,75,45,44,-1,74,70,73,-1,73,70,71,-1,76,77,78,-1,78,77,79,-1,80,81,82,-1,82,81,83,-1,84,85,79,-1,79,85,81,-1,79,81,78,-1,78,81,80,-1,86,87,83,-1,83,87,77,-1,83,77,82,-1,82,77,76,-1,84,79,87,-1,87,79,77,-1,85,84,86,-1,86,84,87,-1,81,85,83,-1,83,85,86,-1,
        ]
    }
}
Shape{
    appearance Appearance {
        material  Material 	{
            diffuseColor 0.14901960784313725 0.14901960784313725 0.14901960784313725
            specularColor 0.07450980392156863 0.07450980392156863 0.07450980392156863
            ambientIntensity 0.2
            transparency 0
            shininess 0.5
        }
    }
    geometry IndexedFaceSet {
        ccw TRUE
        solid FALSE
        coord DEF co Coordinate {
            point [
                -0.4344 0.2559 0.1575, -0.4344 0.4921 0.1575, -0.3031 0.4921 0.0, -0.5 -0.4921 0.2362, -0.5 0.2559 0.2362, -0.4524 -0.4921 0.1791, -0.3031 -0.4921 0.0, -0.3031 0.4921 1.9685, -0.4344 0.4921 1.811, -0.4344 0.2559 1.811, -0.5 0.2559 1.7323, -0.5 -0.4921 1.7323, -0.3031 -0.4921 1.9685, 1.4344 0.4921 1.811, 1.3031 0.4921 1.9685, 1.4344 0.2559 1.811, 1.3031 -0.4921 1.9685, 1.5 0.2559 1.7323, 1.5 -0.4921 1.7323, 0.4344 0.4921 1.811, 0.3031 0.4921 1.9685, 0.4344 0.2559 1.811, 0.3031 -0.4921 1.9685, 0.5 0.2559 1.7323, 0.5 -0.4921 1.7323, 0.6969 0.4921 1.9685, 0.5656 0.4921 1.811, 0.5656 0.2559 1.811, 0.6969 -0.4921 1.9685, 1.3031 -0.4921 0.0, 1.3031 0.4921 0.0, 1.4344 0.2559 0.1575, 1.4344 0.4921 0.1575, 1.4524 -0.4921 0.1791, 1.5 0.2559 0.2362, 1.5 -0.4921 0.2362, 0.3031 -0.4921 0.0, 0.3031 0.4921 0.0, 0.4344 0.2559 0.1575, 0.4344 0.4921 0.1575, 0.4524 -0.4921 0.1791, 0.5 0.2559 0.2362, 0.5 -0.4921 0.2362, 0.5656 0.2559 0.1575, 0.5656 0.4921 0.1575, 0.6969 0.4921 0.0, 0.5476 -0.4921 0.1791, 0.6969 -0.4921 0.0, 0.6969 -0.4921 0.0
            ]
        }
        coordIndex [
            0,1,2,-1,3,4,5,-1,5,4,0,-1,5,0,6,-1,6,0,2,-1,7,8,9,-1,10,11,9,-1,9,11,12,-1,9,12,7,-1,13,14,15,-1,15,14,16,-1,15,16,17,-1,17,16,18,-1,19,20,21,-1,21,20,22,-1,21,22,23,-1,23,22,24,-1,25,26,27,-1,23,24,27,-1,27,24,28,-1,27,28,25,-1,29,30,31,-1,31,30,32,-1,29,31,33,-1,33,31,34,-1,33,34,35,-1,36,37,38,-1,38,37,39,-1,36,38,40,-1,40,38,41,-1,40,41,42,-1,43,44,45,-1,42,41,46,-1,46,41,43,-1,46,43,47,-1,47,43,45,-1,
        ]
    }
}
Shape{
    appearance Appearance {
        material  Material 	{
            diffuseColor 0.7529411764705882 0.7529411764705882 0.7529411764705882
            specularColor 0.3764705882352941 0.3764705882352941 0.3764705882352941
            ambientIntensity 0.2
            transparency 0
            shininess 0.5
        }
    }
    geometry IndexedFaceSet {
        ccw TRUE
        solid FALSE
        coord DEF co Coordinate {
            point [
                -0.126 1.1457 0.6102, 0.126 1.1457 0.6102, 0.126 1.1632 0.6083, -0.126 1.1632 0.6083, 0.126 1.1798 0.6024, -0.126 1.1798 0.6024, 0.126 1.1948 0.5931, -0.126 1.1948 0.5931, 0.126 1.2072 0.5806, -0.126 1.2072 0.5806, 0.126 1.2166 0.5657, -0.126 1.2166 0.5657, 0.126 1.2224 0.549, -0.126 1.2224 0.549, 0.126 1.2244 0.5315, -0.126 1.2244 0.5315, -0.126 1.2244 -1.1024, 0.126 1.2244 -1.1024, -0.126 1.1457 -1.1811, 0.126 1.1457 -1.1811, -0.126 1.0512 -1.1811, 0.126 1.0512 -1.1811, -0.126 0.9724 -1.1024, 0.126 0.9724 -1.1024, -0.126 0.9724 0.2795, 0.126 0.9724 0.2795, -0.126 0.9705 0.297, 0.126 0.9705 0.297, -0.126 0.9646 0.3137, 0.126 0.9646 0.3137, -0.126 0.9553 0.3286, 0.126 0.9553 0.3286, -0.126 0.9428 0.3411, 0.126 0.9428 0.3411, -0.126 0.9279 0.3505, 0.126 0.9279 0.3505, -0.126 0.9112 0.3563, 0.126 0.9112 0.3563, -0.126 0.8937 0.3583, 0.126 0.8937 0.3583, 0.126 0.2559 0.3583, 0.126 0.2559 0.4843, 0.126 0.2559 0.6102, -0.126 0.2559 0.3583, -0.126 0.2559 0.4843, -0.126 0.2559 0.6102, 0.126 -0.4921 0.3583, 0.126 -2.7756 0.3583, -0.126 -0.4921 0.3583, -0.126 -2.7756 0.3583, -0.126 -0.4921 0.6102, -0.126 -2.7756 0.6102, 0.126 -0.4921 0.6102, 0.126 -2.7756 0.6102, -0.126 -2.8543 0.437, -0.126 -2.8543 0.5315, 0.126 -2.8543 0.5315, 0.126 -2.8543 0.437, -0.126 2.1457 1.6102, 0.126 2.1457 1.6102, 0.126 2.1632 1.6083, -0.126 2.1632 1.6083, 0.126 2.1798 1.6024, -0.126 2.1798 1.6024, 0.126 2.1948 1.5931, -0.126 2.1948 1.5931, 0.126 2.2072 1.5806, -0.126 2.2072 1.5806, 0.126 2.2166 1.5657, -0.126 2.2166 1.5657, 0.126 2.2224 1.549, -0.126 2.2224 1.549, 0.126 2.2244 1.5315, -0.126 2.2244 1.5315, -0.126 2.2244 -1.1024, 0.126 2.2244 -1.1024, -0.126 2.1457 -1.1811, 0.126 2.1457 -1.1811, -0.126 2.0512 -1.1811, 0.126 2.0512 -1.1811, -0.126 1.9724 -1.1024, 0.126 1.9724 -1.1024, -0.126 1.9724 1.2795, 0.126 1.9724 1.2795, -0.126 1.9705 1.297, 0.126 1.9705 1.297, -0.126 1.9646 1.3137, 0.126 1.9646 1.3137, -0.126 1.9553 1.3286, 0.126 1.9553 1.3286, -0.126 1.9428 1.3411, 0.126 1.9428 1.3411, -0.126 1.9279 1.3505, 0.126 1.9279 1.3505, -0.126 1.9112 1.3563, 0.126 1.9112 1.3563, -0.126 1.8937 1.3583, 0.126 1.8937 1.3583, 0.126 0.2559 1.6102, 0.126 0.2559 1.3583, -0.126 0.2559 1.3583, -0.126 0.2559 1.6102, 0.126 -0.4921 1.3583, 0.126 -2.7756 1.3583, -0.126 -0.4921 1.3583, -0.126 -2.7756 1.3583, -0.126 -0.4921 1.6102, -0.126 -2.7756 1.6102, 0.126 -0.4921 1.6102, 0.126 -2.7756 1.6102, -0.126 -0.4921 1.4843, -0.126 -2.8543 1.5315, -0.126 -2.8543 1.437, 0.126 -2.8543 1.5315, 0.126 -2.8543 1.437, 0.126 -0.4921 1.4843, 0.874 1.1457 0.6102, 1.126 1.1457 0.6102, 1.126 1.1632 0.6083, 0.874 1.1632 0.6083, 1.126 1.1798 0.6024, 0.874 1.1798 0.6024, 1.126 1.1948 0.5931, 0.874 1.1948 0.5931, 1.126 1.2072 0.5806, 0.874 1.2072 0.5806, 1.126 1.2166 0.5657, 0.874 1.2166 0.5657, 1.126 1.2224 0.549, 0.874 1.2224 0.549, 1.126 1.2244 0.5315, 0.874 1.2244 0.5315, 0.874 1.2244 -1.1024, 1.126 1.2244 -1.1024, 0.874 1.1457 -1.1811, 1.126 1.1457 -1.1811, 0.874 1.0512 -1.1811, 1.126 1.0512 -1.1811, 0.874 0.9724 -1.1024, 1.126 0.9724 -1.1024, 0.874 0.9724 0.2795, 1.126 0.9724 0.2795, 0.874 0.9705 0.297, 1.126 0.9705 0.297, 0.874 0.9646 0.3137, 1.126 0.9646 0.3137, 0.874 0.9553 0.3286, 1.126 0.9553 0.3286, 0.874 0.9428 0.3411, 1.126 0.9428 0.3411, 0.874 0.9279 0.3505, 1.126 0.9279 0.3505, 0.874 0.9112 0.3563, 1.126 0.9112 0.3563, 0.874 0.8937 0.3583, 1.126 0.8937 0.3583, 1.126 0.2559 0.3583, 1.126 0.2559 0.4843, 1.126 0.2559 0.6102, 0.874 0.2559 0.3583, 0.874 0.2559 0.4843, 0.874 0.2559 0.6102, 1.126 -0.4921 0.3583, 1.126 -2.7756 0.3583, 0.874 -0.4921 0.3583, 0.874 -2.7756 0.3583, 0.874 -0.4921 0.6102, 0.874 -2.7756 0.6102, 1.126 -0.4921 0.6102, 1.126 -2.7756 0.6102, 0.874 -2.8543 0.437, 0.874 -2.8543 0.5315, 1.126 -2.8543 0.5315, 1.126 -2.8543 0.437, 0.874 2.1457 1.6102, 1.126 2.1457 1.6102, 1.126 2.1632 1.6083, 0.874 2.1632 1.6083, 1.126 2.1798 1.6024, 0.874 2.1798 1.6024, 1.126 2.1948 1.5931, 0.874 2.1948 1.5931, 1.126 2.2072 1.5806, 0.874 2.2072 1.5806, 1.126 2.2166 1.5657, 0.874 2.2166 1.5657, 1.126 2.2224 1.549, 0.874 2.2224 1.549, 1.126 2.2244 1.5315, 0.874 2.2244 1.5315, 0.874 2.2244 -1.1024, 1.126 2.2244 -1.1024, 0.874 2.1457 -1.1811, 1.126 2.1457 -1.1811, 0.874 2.0512 -1.1811, 1.126 2.0512 -1.1811, 0.874 1.9724 -1.1024, 1.126 1.9724 -1.1024, 0.874 1.9724 1.2795, 1.126 1.9724 1.2795, 0.874 1.9705 1.297, 1.126 1.9705 1.297, 0.874 1.9646 1.3137, 1.126 1.9646 1.3137, 0.874 1.9553 1.3286, 1.126 1.9553 1.3286, 0.874 1.9428 1.3411, 1.126 1.9428 1.3411, 0.874 1.9279 1.3505, 1.126 1.9279 1.3505, 0.874 1.9112 1.3563, 1.126 1.9112 1.3563, 0.874 1.8937 1.3583, 1.126 1.8937 1.3583, 1.126 0.2559 1.6102, 1.126 0.2559 1.3583, 0.874 0.2559 1.3583, 0.874 0.2559 1.6102, 1.126 -0.4921 1.3583, 1.126 -2.7756 1.3583, 0.874 -0.4921 1.3583, 0.874 -2.7756 1.3583, 0.874 -0.4921 1.6102, 0.874 -2.7756 1.6102, 1.126 -0.4921 1.6102, 1.126 -2.7756 1.6102, 0.874 -0.4921 1.4843, 0.874 -2.8543 1.5315, 0.874 -2.8543 1.437, 1.126 -2.8543 1.5315, 1.126 -2.8543 1.437, 1.126 -0.4921 1.4843, -0.8425 0.1479 0.0394, -0.8425 0.1499 0.0394, -0.8425 0.1479 0.0, -0.8425 0.1499 0.0, -1.0 0.2226 0.0394, -1.0 0.2226 0.0, -1.0 0.2072 0.0394, -1.0 0.2072 0.0, -0.9495 0.1839 0.0394, -0.9495 0.1839 0.0, -0.9495 0.1126 0.0394, -0.9495 0.1126 0.0, -1.0 0.0886 0.0394, -1.0 0.0886 0.0, -1.0 0.0732 0.0394, -1.0 0.0732 0.0, -0.9334 0.1202 0.0394, -0.8732 0.1487 0.0394, -0.9334 0.1765 0.0394, -0.9334 0.1765 0.0, -0.8732 0.1487 0.0, -0.9334 0.1202 0.0, -1.0 -0.0274 0.0394, -1.0 -0.0762 0.0394, -1.0 -0.0274 0.0, -1.0 -0.0762 0.0, -0.8425 -0.0762 0.0394, -0.8425 -0.0762 0.0, -0.8425 -0.0444 0.0394, -0.8425 -0.0444 0.0, -0.8482 0.0056 0.0394, -0.8482 0.0056 0.0, -0.8435 -0.0192 0.0, -0.8435 -0.0192 0.0394, -0.9232 0.053 0.0394, -0.9232 0.053 0.0, -0.9166 0.0528 0.0, -0.9166 0.0528 0.0394, -0.8974 0.0498 0.0, -0.8974 0.0498 0.0394, -0.8808 0.0432 0.0, -0.8808 0.0432 0.0394, -0.8664 0.0332 0.0, -0.8664 0.0332 0.0394, -0.8562 0.0215 0.0, -0.8562 0.0215 0.0394, -0.9991 -0.0105 0.0, -0.9991 -0.0105 0.0394, -0.9948 0.0094 0.0, -0.9948 0.0094 0.0394, -0.9881 0.0226 0.0, -0.9881 0.0226 0.0394, -0.9781 0.0338 0.0, -0.9781 0.0338 0.0394, -0.9619 0.0446 0.0, -0.9619 0.0446 0.0394, -0.9443 0.0508 0.0, -0.9443 0.0508 0.0394, -0.8594 -0.0267 0.0394, -0.8631 -0.0026 0.0394, -0.8657 0.0044 0.0394, -0.8725 0.0162 0.0394, -0.8814 0.0253 0.0394, -0.893 0.0325 0.0394, -0.9065 0.0372 0.0394, -0.9232 0.0389 0.0394, -0.9272 0.0388 0.0394, -0.9438 0.0361 0.0394, -0.9559 0.0309 0.0394, -0.9664 0.023 0.0394, -0.974 0.0136 0.0394, -0.9798 0.001 0.0394, -0.9832 -0.0214 0.0394, -0.9838 -0.044 0.0394, -0.9838 -0.0621 0.0394, -0.8587 -0.0621 0.0394, -0.8587 -0.051 0.0394, -0.8587 -0.0621 0.0, -0.9838 -0.0621 0.0, -0.8587 -0.051 0.0, -0.8594 -0.0267 -0.0, -0.8631 -0.0026 0.0, -0.8657 0.0044 0.0, -0.8725 0.0162 -0.0, -0.8814 0.0253 0.0, -0.893 0.0325 -0.0, -0.9065 0.0372 0.0, -0.9232 0.0389 -0.0, -0.9272 0.0388 0.0, -0.9438 0.0361 0.0, -0.9559 0.0309 0.0, -0.9664 0.023 0.0, -0.974 0.0136 0.0, -0.9798 0.001 0.0, -0.9832 -0.0214 0.0, -0.9838 -0.044 0.0, -1.0 -0.1933 0.0394, -0.8425 -0.1933 0.0394, -1.0 -0.1933 0.0, -0.8425 -0.1933 0.0, -0.8425 -0.1045 0.0394, -0.8425 -0.1045 0.0, -0.8587 -0.1045 0.0394, -0.8587 -0.1045 0.0, -0.8587 -0.1792 0.0394, -0.8587 -0.1792 0.0, -0.9071 -0.1792 0.0394, -0.9071 -0.1792 0.0, -0.9071 -0.1045 0.0394, -0.9071 -0.1045 0.0, -0.9233 -0.1045 0.0394, -0.9233 -0.1045 0.0, -0.9233 -0.1792 0.0394, -0.9233 -0.1792 0.0, -0.9838 -0.1792 0.0394, -0.9838 -0.1792 0.0, -0.9838 -0.1045 0.0394, -0.9838 -0.1045 0.0, -1.0 -0.1045 0.0394, -1.0 -0.1045 0.0, -0.8714 -0.2256 0.0394, -0.8714 -0.2256 0.0, -0.8686 -0.2278 0.0, -0.8686 -0.2278 0.0394, -0.8556 -0.2409 0.0, -0.8556 -0.2409 0.0394, -0.8454 -0.2583 0.0, -0.8454 -0.2583 0.0394, -0.8412 -0.2709 0.0, -0.8412 -0.2709 0.0394, -0.8385 -0.2943 0.0, -0.8385 -0.2943 0.0394, -0.8809 -0.238 0.0394, -0.8809 -0.238 0.0, -0.8546 -0.2952 0.0394, -0.8546 -0.2952 0.0, -0.8549 -0.2888 0.0, -0.8549 -0.2888 0.0394, -0.8576 -0.2732 0.0, -0.8576 -0.2732 0.0394, -0.8604 -0.2651 0.0, -0.8604 -0.2651 0.0394, -0.8684 -0.251 0.0, -0.8684 -0.251 0.0394, -0.9214 -0.3649 0.0394, -0.9214 -0.3649 0.0, -0.9138 -0.3645 0.0, -0.9138 -0.3645 0.0394, -0.8987 -0.3612 0.0, -0.8987 -0.3612 0.0394, -0.8847 -0.3542 0.0, -0.8847 -0.3542 0.0394, -0.8733 -0.3444 0.0, -0.8733 -0.3444 0.0394, -0.8632 -0.3299 0.0, -0.8632 -0.3299 0.0394, -0.8569 -0.3138 0.0, -0.8569 -0.3138 0.0394, -0.9879 -0.2942 0.0394, -0.9879 -0.2942 0.0, -0.987 -0.3067 0.0, -0.987 -0.3067 0.0394, -0.9829 -0.3227 0.0, -0.9829 -0.3227 0.0394, -0.9747 -0.3379 0.0, -0.9747 -0.3379 0.0394, -0.9641 -0.3495 0.0, -0.9641 -0.3495 0.0394, -0.9519 -0.3579 0.0, -0.9519 -0.3579 0.0394, -0.9388 -0.3628 0.0, -0.9388 -0.3628 0.0394, -0.9616 -0.238 0.0394, -0.9616 -0.238 0.0, -0.9704 -0.2467 0.0, -0.9704 -0.2467 0.0394, -0.98 -0.2606 0.0, -0.98 -0.2606 0.0394, -0.9857 -0.2758 0.0, -0.9857 -0.2758 0.0394, -0.971 -0.2256 0.0394, -0.971 -0.2256 0.0, -1.004 -0.2941 0.0394, -1.004 -0.2941 0.0, -1.004 -0.2918 0.0, -1.004 -0.2918 0.0394, -1.002 -0.2758 0.0, -1.0015 -0.2719 0.0394, -1.0015 -0.2719 0.0, -0.9961 -0.2564 0.0, -0.9961 -0.2564 0.0394, -0.9856 -0.2396 0.0, -0.9856 -0.2396 0.0394, -1.002 -0.3118 0.0, -1.0012 -0.3187 0.0394, -1.0012 -0.3187 0.0, -0.994 -0.3376 0.0394, -0.994 -0.3376 0.0, -0.9831 -0.3528 0.0394, -0.9831 -0.3528 0.0, -0.9765 -0.3591 0.0394, -0.9765 -0.3591 0.0, -0.9203 -0.3791 0.0394, -0.9203 -0.3791 0.0, -0.9411 -0.3768 0.0, -0.9411 -0.3768 0.0394, -0.9593 -0.3705 0.0, -0.9593 -0.3705 0.0394, -0.8392 -0.3069 0.0, -0.8392 -0.3069 0.0394, -0.8438 -0.3261 0.0, -0.8438 -0.3261 0.0394, -0.8523 -0.3428 0.0, -0.8523 -0.3428 0.0394, -0.8666 -0.3592 0.0, -0.8666 -0.3592 0.0394, -0.8821 -0.37 0.0, -0.8821 -0.37 0.0394, -0.8988 -0.3765 0.0, -0.8988 -0.3765 0.0394, -1.0 -0.4719 0.0394, -0.8425 -0.4719 0.0394, -1.0 -0.4719 0.0, -0.8425 -0.4719 0.0, -0.8425 -0.4578 0.0394, -0.8425 -0.4578 0.0, -0.9838 -0.4578 0.0394, -0.9838 -0.4578 0.0, -0.9838 -0.3972 0.0394, -0.9838 -0.3972 0.0, -1.0 -0.3972 0.0394, -1.0 -0.3972 0.0, -1.0 -0.3972 0.0
            ]
        }
        coordIndex [
            0,1,2,-1,0,2,3,-1,3,2,4,-1,3,4,5,-1,5,4,6,-1,5,6,7,-1,7,6,8,-1,7,8,9,-1,9,8,10,-1,9,10,11,-1,11,10,12,-1,11,12,13,-1,13,12,14,-1,13,14,15,-1,16,15,17,-1,17,15,14,-1,18,16,19,-1,19,16,17,-1,20,18,21,-1,21,18,19,-1,22,20,23,-1,23,20,21,-1,24,22,25,-1,25,22,23,-1,24,25,26,-1,26,25,27,-1,26,27,28,-1,28,27,29,-1,28,29,30,-1,30,29,31,-1,30,31,32,-1,32,31,33,-1,32,33,34,-1,34,33,35,-1,34,35,36,-1,36,35,37,-1,36,37,38,-1,38,37,39,-1,31,29,14,-1,14,12,31,-1,31,12,10,-1,31,10,33,-1,33,10,8,-1,33,8,6,-1,40,39,41,-1,41,39,1,-1,41,1,42,-1,39,37,1,-1,1,37,35,-1,1,35,2,-1,2,35,33,-1,2,33,4,-1,4,33,6,-1,21,19,23,-1,23,19,17,-1,23,17,25,-1,25,17,14,-1,25,14,27,-1,27,14,29,-1,34,36,0,-1,0,36,38,-1,5,7,32,-1,20,22,18,-1,18,22,24,-1,18,24,16,-1,16,24,15,-1,34,0,32,-1,32,0,3,-1,32,3,5,-1,24,26,15,-1,15,26,28,-1,15,28,13,-1,13,28,30,-1,13,30,11,-1,11,30,32,-1,11,32,9,-1,9,32,7,-1,38,43,0,-1,0,43,44,-1,0,44,45,-1,42,1,45,-1,45,1,0,-1,43,38,40,-1,40,38,39,-1,46,47,48,-1,48,47,49,-1,50,51,52,-1,52,51,53,-1,54,55,49,-1,49,55,51,-1,49,51,48,-1,48,51,50,-1,56,57,53,-1,53,57,47,-1,53,47,52,-1,52,47,46,-1,54,49,57,-1,57,49,47,-1,55,54,56,-1,56,54,57,-1,51,55,53,-1,53,55,56,-1,58,59,60,-1,58,60,61,-1,61,60,62,-1,61,62,63,-1,63,62,64,-1,63,64,65,-1,65,64,66,-1,65,66,67,-1,67,66,68,-1,67,68,69,-1,69,68,70,-1,69,70,71,-1,71,70,72,-1,71,72,73,-1,74,73,75,-1,75,73,72,-1,76,74,77,-1,77,74,75,-1,78,76,79,-1,79,76,77,-1,80,78,81,-1,81,78,79,-1,82,80,83,-1,83,80,81,-1,82,83,84,-1,84,83,85,-1,84,85,86,-1,86,85,87,-1,86,87,88,-1,88,87,89,-1,88,89,90,-1,90,89,91,-1,90,91,92,-1,92,91,93,-1,92,93,94,-1,94,93,95,-1,94,95,96,-1,96,95,97,-1,89,87,72,-1,98,99,59,-1,59,99,97,-1,72,70,89,-1,89,70,68,-1,89,68,91,-1,91,68,66,-1,91,66,64,-1,87,85,72,-1,72,85,83,-1,72,83,75,-1,75,83,81,-1,75,81,77,-1,77,81,79,-1,97,95,59,-1,59,95,93,-1,59,93,60,-1,60,93,91,-1,60,91,62,-1,62,91,64,-1,90,92,58,-1,100,101,96,-1,96,101,58,-1,96,58,94,-1,94,58,92,-1,76,78,74,-1,74,78,80,-1,74,80,73,-1,73,80,82,-1,58,61,90,-1,90,61,63,-1,90,63,88,-1,88,63,65,-1,88,65,67,-1,82,84,73,-1,73,84,86,-1,73,86,71,-1,71,86,88,-1,71,88,69,-1,69,88,67,-1,98,59,101,-1,101,59,58,-1,100,96,99,-1,99,96,97,-1,102,103,104,-1,104,103,105,-1,106,107,108,-1,108,107,109,-1,107,106,110,-1,111,107,112,-1,112,107,110,-1,112,110,105,-1,105,110,104,-1,109,113,114,-1,108,109,115,-1,115,109,114,-1,115,114,102,-1,102,114,103,-1,112,105,114,-1,114,105,103,-1,111,112,113,-1,113,112,114,-1,107,111,109,-1,109,111,113,-1,116,117,118,-1,116,118,119,-1,119,118,120,-1,119,120,121,-1,121,120,122,-1,121,122,123,-1,123,122,124,-1,123,124,125,-1,125,124,126,-1,125,126,127,-1,127,126,128,-1,127,128,129,-1,129,128,130,-1,129,130,131,-1,132,131,133,-1,133,131,130,-1,134,132,135,-1,135,132,133,-1,136,134,137,-1,137,134,135,-1,138,136,139,-1,139,136,137,-1,140,138,141,-1,141,138,139,-1,140,141,142,-1,142,141,143,-1,142,143,144,-1,144,143,145,-1,144,145,146,-1,146,145,147,-1,146,147,148,-1,148,147,149,-1,148,149,150,-1,150,149,151,-1,150,151,152,-1,152,151,153,-1,152,153,154,-1,154,153,155,-1,147,145,130,-1,130,128,147,-1,147,128,126,-1,147,126,149,-1,149,126,124,-1,149,124,122,-1,156,155,157,-1,157,155,117,-1,157,117,158,-1,155,153,117,-1,117,153,151,-1,117,151,118,-1,118,151,149,-1,118,149,120,-1,120,149,122,-1,137,135,139,-1,139,135,133,-1,139,133,141,-1,141,133,130,-1,141,130,143,-1,143,130,145,-1,150,152,116,-1,116,152,154,-1,121,123,148,-1,136,138,134,-1,134,138,140,-1,134,140,132,-1,132,140,131,-1,150,116,148,-1,148,116,119,-1,148,119,121,-1,140,142,131,-1,131,142,144,-1,131,144,129,-1,129,144,146,-1,129,146,127,-1,127,146,148,-1,127,148,125,-1,125,148,123,-1,154,159,116,-1,116,159,160,-1,116,160,161,-1,158,117,161,-1,161,117,116,-1,159,154,156,-1,156,154,155,-1,162,163,164,-1,164,163,165,-1,166,167,168,-1,168,167,169,-1,170,171,165,-1,165,171,167,-1,165,167,164,-1,164,167,166,-1,172,173,169,-1,169,173,163,-1,169,163,168,-1,168,163,162,-1,170,165,173,-1,173,165,163,-1,171,170,172,-1,172,170,173,-1,167,171,169,-1,169,171,172,-1,174,175,176,-1,174,176,177,-1,177,176,178,-1,177,178,179,-1,179,178,180,-1,179,180,181,-1,181,180,182,-1,181,182,183,-1,183,182,184,-1,183,184,185,-1,185,184,186,-1,185,186,187,-1,187,186,188,-1,187,188,189,-1,190,189,191,-1,191,189,188,-1,192,190,193,-1,193,190,191,-1,194,192,195,-1,195,192,193,-1,196,194,197,-1,197,194,195,-1,198,196,199,-1,199,196,197,-1,198,199,200,-1,200,199,201,-1,200,201,202,-1,202,201,203,-1,202,203,204,-1,204,203,205,-1,204,205,206,-1,206,205,207,-1,206,207,208,-1,208,207,209,-1,208,209,210,-1,210,209,211,-1,210,211,212,-1,212,211,213,-1,205,203,188,-1,214,215,175,-1,175,215,213,-1,188,186,205,-1,205,186,184,-1,205,184,207,-1,207,184,182,-1,207,182,180,-1,203,201,188,-1,188,201,199,-1,188,199,191,-1,191,199,197,-1,191,197,193,-1,193,197,195,-1,213,211,175,-1,175,211,209,-1,175,209,176,-1,176,209,207,-1,176,207,178,-1,178,207,180,-1,206,208,174,-1,216,217,212,-1,212,217,174,-1,212,174,210,-1,210,174,208,-1,192,194,190,-1,190,194,196,-1,190,196,189,-1,189,196,198,-1,174,177,206,-1,206,177,179,-1,206,179,204,-1,204,179,181,-1,204,181,183,-1,198,200,189,-1,189,200,202,-1,189,202,187,-1,187,202,204,-1,187,204,185,-1,185,204,183,-1,214,175,217,-1,217,175,174,-1,216,212,215,-1,215,212,213,-1,218,219,220,-1,220,219,221,-1,222,223,224,-1,224,223,225,-1,223,222,226,-1,227,223,228,-1,228,223,226,-1,228,226,221,-1,221,226,220,-1,225,229,230,-1,224,225,231,-1,231,225,230,-1,231,230,218,-1,218,230,219,-1,228,221,230,-1,230,221,219,-1,227,228,229,-1,229,228,230,-1,223,227,225,-1,225,227,229,-1,232,233,234,-1,234,233,235,-1,233,236,235,-1,235,236,237,-1,236,238,237,-1,237,238,239,-1,238,240,239,-1,239,240,241,-1,240,242,241,-1,241,242,243,-1,242,244,243,-1,243,244,245,-1,244,246,245,-1,245,246,247,-1,246,232,247,-1,247,232,234,-1,233,232,248,-1,248,249,233,-1,233,249,250,-1,233,250,236,-1,246,244,242,-1,238,236,240,-1,240,236,250,-1,240,250,242,-1,242,250,248,-1,242,248,246,-1,246,248,232,-1,250,249,251,-1,251,249,252,-1,248,250,253,-1,253,250,251,-1,249,248,252,-1,252,248,253,-1,254,255,256,-1,256,255,257,-1,255,258,257,-1,257,258,259,-1,258,260,259,-1,259,260,261,-1,262,263,264,-1,262,264,265,-1,265,264,261,-1,265,261,260,-1,266,267,268,-1,266,268,269,-1,269,268,270,-1,269,270,271,-1,271,270,272,-1,271,272,273,-1,273,272,274,-1,273,274,275,-1,275,274,276,-1,275,276,277,-1,277,276,263,-1,277,263,262,-1,254,256,278,-1,254,278,279,-1,279,278,280,-1,279,280,281,-1,281,280,282,-1,281,282,283,-1,283,282,284,-1,283,284,285,-1,285,284,286,-1,285,286,287,-1,287,286,288,-1,287,288,289,-1,289,288,267,-1,289,267,266,-1,290,291,262,-1,262,291,292,-1,262,292,277,-1,277,292,293,-1,277,293,275,-1,275,293,294,-1,275,294,273,-1,273,294,295,-1,273,295,271,-1,271,295,296,-1,271,296,269,-1,269,296,297,-1,269,297,266,-1,266,297,298,-1,266,298,289,-1,289,298,299,-1,289,299,287,-1,287,299,300,-1,287,300,285,-1,285,300,301,-1,285,301,283,-1,283,301,302,-1,283,302,281,-1,281,302,303,-1,281,303,279,-1,279,303,304,-1,279,304,254,-1,254,304,305,-1,254,305,255,-1,255,305,306,-1,255,306,258,-1,258,306,307,-1,258,307,260,-1,260,307,308,-1,260,308,265,-1,265,308,290,-1,265,290,262,-1,307,306,309,-1,309,306,310,-1,308,307,311,-1,311,307,309,-1,308,311,312,-1,308,312,290,-1,290,312,313,-1,290,313,291,-1,291,313,314,-1,291,314,292,-1,292,314,315,-1,292,315,293,-1,293,315,316,-1,293,316,294,-1,294,316,317,-1,294,317,295,-1,295,317,318,-1,295,318,296,-1,296,318,319,-1,296,319,297,-1,297,319,320,-1,297,320,298,-1,298,320,321,-1,298,321,299,-1,299,321,322,-1,299,322,300,-1,300,322,323,-1,300,323,301,-1,301,323,324,-1,301,324,302,-1,302,324,325,-1,302,325,303,-1,303,325,326,-1,303,326,304,-1,304,326,327,-1,304,327,305,-1,306,305,310,-1,310,305,327,-1,328,329,330,-1,330,329,331,-1,329,332,331,-1,331,332,333,-1,332,334,333,-1,333,334,335,-1,334,336,335,-1,335,336,337,-1,336,338,337,-1,337,338,339,-1,338,340,339,-1,339,340,341,-1,340,342,341,-1,341,342,343,-1,342,344,343,-1,343,344,345,-1,344,346,345,-1,345,346,347,-1,346,348,347,-1,347,348,349,-1,348,350,349,-1,349,350,351,-1,350,328,351,-1,351,328,330,-1,328,350,348,-1,348,346,328,-1,328,346,344,-1,328,344,329,-1,334,332,336,-1,336,332,329,-1,336,329,338,-1,338,329,344,-1,338,344,340,-1,340,344,342,-1,352,353,354,-1,352,354,355,-1,355,354,356,-1,355,356,357,-1,357,356,358,-1,357,358,359,-1,359,358,360,-1,359,360,361,-1,361,360,362,-1,361,362,363,-1,352,364,353,-1,353,364,365,-1,366,367,368,-1,366,368,369,-1,369,368,370,-1,369,370,371,-1,371,370,372,-1,371,372,373,-1,373,372,374,-1,373,374,375,-1,375,374,365,-1,375,365,364,-1,376,377,378,-1,376,378,379,-1,379,378,380,-1,379,380,381,-1,381,380,382,-1,381,382,383,-1,383,382,384,-1,383,384,385,-1,385,384,386,-1,385,386,387,-1,387,386,388,-1,387,388,389,-1,389,388,367,-1,389,367,366,-1,390,391,392,-1,390,392,393,-1,393,392,394,-1,393,394,395,-1,395,394,396,-1,395,396,397,-1,397,396,398,-1,397,398,399,-1,399,398,400,-1,399,400,401,-1,401,400,402,-1,401,402,403,-1,403,402,377,-1,403,377,376,-1,404,405,406,-1,404,406,407,-1,407,406,408,-1,407,408,409,-1,409,408,410,-1,409,410,411,-1,411,410,391,-1,411,391,390,-1,404,412,405,-1,405,412,413,-1,414,415,416,-1,414,416,417,-1,417,416,418,-1,417,418,419,-1,418,420,419,-1,419,420,421,-1,419,421,422,-1,422,421,423,-1,422,423,424,-1,424,423,413,-1,424,413,412,-1,415,414,425,-1,425,414,426,-1,425,426,427,-1,427,426,428,-1,427,428,429,-1,429,428,430,-1,429,430,431,-1,431,430,432,-1,431,432,433,-1,434,435,436,-1,434,436,437,-1,437,436,438,-1,437,438,439,-1,439,438,433,-1,439,433,432,-1,363,362,440,-1,363,440,441,-1,441,440,442,-1,441,442,443,-1,443,442,444,-1,443,444,445,-1,445,444,446,-1,445,446,447,-1,447,446,448,-1,447,448,449,-1,449,448,450,-1,449,450,451,-1,451,450,435,-1,451,435,434,-1,364,352,355,-1,412,404,424,-1,424,404,407,-1,424,407,422,-1,422,407,409,-1,422,409,419,-1,419,409,411,-1,419,411,417,-1,417,411,390,-1,364,355,375,-1,375,355,357,-1,375,357,373,-1,373,357,359,-1,373,359,371,-1,371,359,361,-1,371,361,369,-1,369,361,363,-1,369,363,366,-1,366,363,441,-1,366,441,389,-1,389,441,443,-1,389,443,387,-1,387,443,445,-1,387,445,385,-1,385,445,447,-1,385,447,383,-1,383,447,449,-1,383,449,381,-1,381,449,451,-1,381,451,379,-1,379,451,434,-1,379,434,376,-1,376,434,403,-1,403,434,437,-1,403,437,401,-1,401,437,439,-1,401,439,399,-1,399,439,432,-1,399,432,397,-1,397,432,430,-1,397,430,395,-1,395,430,428,-1,395,428,393,-1,393,428,426,-1,393,426,390,-1,390,426,414,-1,390,414,417,-1,452,453,454,-1,454,453,455,-1,453,456,455,-1,455,456,457,-1,456,458,457,-1,457,458,459,-1,458,460,459,-1,459,460,461,-1,460,462,461,-1,461,462,463,-1,462,452,463,-1,463,452,454,-1,456,453,458,-1,458,453,452,-1,458,452,460,-1,460,452,462,-1,
        ]
    }
}
Shape{
    appearance Appearance {
        material  Material 	{
            diffuseColor 0.14901960784313725 0.14901960784313725 0.14901960784313725
            specularColor 0.07450980392156863 0.07450980392156863 0.07450980392156863
            ambientIntensity 0.2
            transparency 0
            shininess 0.5
        }
    }
    geometry IndexedFaceSet {
        ccw TRUE
        solid FALSE
        coord DEF co Coordinate {
            point [
                -0.8732 0.1487 0.0, -0.9334 0.1202 0.0, -0.9334 0.1765 0.0, -0.8587 -0.0621 0.0, -0.9838 -0.0621 0.0, -0.8587 -0.051 0.0, -0.9838 -0.044 0.0, -0.8594 -0.0267 -0.0, -0.9832 -0.0214 0.0, -0.8631 -0.0026 0.0, -0.9559 0.0309 0.0, -0.9438 0.0361 0.0, -0.9272 0.0388 0.0, -0.9232 0.0389 -0.0, -0.9798 0.001 0.0, -0.974 0.0136 0.0, -0.9664 0.023 0.0, -0.9065 0.0372 0.0, -0.893 0.0325 -0.0, -0.8814 0.0253 0.0, -0.8725 0.0162 -0.0, -0.8657 0.0044 0.0, -0.8657 0.0044 0.0
            ]
        }
        coordIndex [
            0,1,2,-1,3,4,5,-1,5,4,6,-1,5,6,7,-1,7,6,8,-1,7,8,9,-1,10,11,8,-1,8,11,12,-1,8,12,13,-1,14,15,8,-1,8,15,16,-1,8,16,10,-1,13,17,8,-1,8,17,18,-1,8,18,19,-1,19,20,8,-1,8,20,21,-1,8,21,9,-1,
        ]
    }
}